<mxfile host="Electron" modified="2024-04-09T09:57:21.572Z" agent="Mozilla/5.0 (Windows NT 10.0; Win64; x64) AppleWebKit/537.36 (KHTML, like Gecko) draw.io/24.1.0 Chrome/120.0.6099.109 Electron/28.1.0 Safari/537.36" etag="yxor0sU7JaJtBwFEGrwm" version="24.1.0" type="device">
  <diagram name="Page-1" id="F-4ya8bV_DICIZbiUDT7">
    <mxGraphModel dx="1434" dy="844" grid="1" gridSize="10" guides="1" tooltips="1" connect="1" arrows="1" fold="1" page="1" pageScale="1" pageWidth="827" pageHeight="1169" math="0" shadow="0">
      <root>
        <mxCell id="0" />
        <mxCell id="1" parent="0" />
        <mxCell id="s5n8KvZ3U9ey9CkBo1np-37" value="World" style="rounded=0;whiteSpace=wrap;html=1;align=center;verticalAlign=top;" parent="1" vertex="1">
          <mxGeometry x="600" y="160" width="161" height="320" as="geometry" />
        </mxCell>
        <mxCell id="s5n8KvZ3U9ey9CkBo1np-2" value="" style="rounded=0;whiteSpace=wrap;html=1;fillColor=none;dashed=1;strokeColor=#FFFF00;" parent="1" vertex="1">
          <mxGeometry x="80" y="160" width="380" height="480" as="geometry" />
        </mxCell>
        <mxCell id="qsqp7JwGbnCelPo4mVhI-31" value="Player" style="text;html=1;align=center;verticalAlign=middle;whiteSpace=wrap;rounded=0;fontColor=#F0F000;" parent="1" vertex="1">
          <mxGeometry x="230" y="170" width="80" height="20" as="geometry" />
        </mxCell>
        <mxCell id="EGitm1jSy59NkdtoqJ5c-12" value="" style="endArrow=classic;html=1;rounded=0;" parent="1" edge="1">
          <mxGeometry width="50" height="50" relative="1" as="geometry">
            <mxPoint x="720" y="40" as="sourcePoint" />
            <mxPoint x="600" y="40" as="targetPoint" />
          </mxGeometry>
        </mxCell>
        <mxCell id="EGitm1jSy59NkdtoqJ5c-16" value="" style="endArrow=classic;html=1;rounded=0;dashed=1;" parent="1" edge="1">
          <mxGeometry width="50" height="50" relative="1" as="geometry">
            <mxPoint x="720" y="80" as="sourcePoint" />
            <mxPoint x="600" y="80" as="targetPoint" />
          </mxGeometry>
        </mxCell>
        <mxCell id="EGitm1jSy59NkdtoqJ5c-17" value="Continuous update" style="text;html=1;align=center;verticalAlign=middle;whiteSpace=wrap;rounded=0;" parent="1" vertex="1">
          <mxGeometry x="725" y="30" width="60" height="20" as="geometry" />
        </mxCell>
        <mxCell id="EGitm1jSy59NkdtoqJ5c-18" value="Occasional or single update" style="text;html=1;align=center;verticalAlign=middle;whiteSpace=wrap;rounded=0;" parent="1" vertex="1">
          <mxGeometry x="725" y="70" width="85" height="20" as="geometry" />
        </mxCell>
        <mxCell id="s5n8KvZ3U9ey9CkBo1np-5" value="CountryController" style="rounded=0;whiteSpace=wrap;html=1;verticalAlign=top;" parent="1" vertex="1">
          <mxGeometry x="240" y="200" width="120" height="70" as="geometry" />
        </mxCell>
        <mxCell id="s5n8KvZ3U9ey9CkBo1np-34" style="edgeStyle=orthogonalEdgeStyle;rounded=0;orthogonalLoop=1;jettySize=auto;html=1;exitX=0;exitY=0.5;exitDx=0;exitDy=0;entryX=0.75;entryY=0;entryDx=0;entryDy=0;" parent="1" source="s5n8KvZ3U9ey9CkBo1np-6" target="s5n8KvZ3U9ey9CkBo1np-27" edge="1">
          <mxGeometry relative="1" as="geometry" />
        </mxCell>
        <mxCell id="s5n8KvZ3U9ey9CkBo1np-6" value="Country" style="rounded=0;whiteSpace=wrap;html=1;fillColor=#6a00ff;strokeColor=#3700CC;fontColor=#ffffff;" parent="1" vertex="1">
          <mxGeometry x="250" y="227" width="100" height="33" as="geometry" />
        </mxCell>
        <mxCell id="s5n8KvZ3U9ey9CkBo1np-14" style="edgeStyle=orthogonalEdgeStyle;rounded=0;orthogonalLoop=1;jettySize=auto;html=1;exitX=0.75;exitY=0;exitDx=0;exitDy=0;entryX=0.75;entryY=1;entryDx=0;entryDy=0;startArrow=classic;startFill=1;" parent="1" source="s5n8KvZ3U9ey9CkBo1np-13" target="s5n8KvZ3U9ey9CkBo1np-5" edge="1">
          <mxGeometry relative="1" as="geometry" />
        </mxCell>
        <mxCell id="s5n8KvZ3U9ey9CkBo1np-17" style="edgeStyle=orthogonalEdgeStyle;rounded=0;orthogonalLoop=1;jettySize=auto;html=1;exitX=0.25;exitY=1;exitDx=0;exitDy=0;entryX=0.25;entryY=0;entryDx=0;entryDy=0;" parent="1" source="s5n8KvZ3U9ey9CkBo1np-13" target="s5n8KvZ3U9ey9CkBo1np-15" edge="1">
          <mxGeometry relative="1" as="geometry" />
        </mxCell>
        <mxCell id="bfRYl_HwLqJagW9Rja5c-1" style="edgeStyle=orthogonalEdgeStyle;rounded=0;orthogonalLoop=1;jettySize=auto;html=1;exitX=0.75;exitY=1;exitDx=0;exitDy=0;entryX=0.75;entryY=0;entryDx=0;entryDy=0;" parent="1" source="s5n8KvZ3U9ey9CkBo1np-13" target="s5n8KvZ3U9ey9CkBo1np-15" edge="1">
          <mxGeometry relative="1" as="geometry" />
        </mxCell>
        <mxCell id="vog4f9cFWUaIPNrVH_pE-1" style="edgeStyle=orthogonalEdgeStyle;rounded=0;orthogonalLoop=1;jettySize=auto;html=1;exitX=1;exitY=0.5;exitDx=0;exitDy=0;entryX=0;entryY=0.5;entryDx=0;entryDy=0;startArrow=classic;startFill=1;" edge="1" parent="1" source="s5n8KvZ3U9ey9CkBo1np-13" target="s5n8KvZ3U9ey9CkBo1np-37">
          <mxGeometry relative="1" as="geometry">
            <Array as="points">
              <mxPoint x="440" y="400" />
              <mxPoint x="440" y="320" />
            </Array>
          </mxGeometry>
        </mxCell>
        <mxCell id="s5n8KvZ3U9ey9CkBo1np-13" value="PlayerController" style="rounded=0;whiteSpace=wrap;html=1;verticalAlign=top;" parent="1" vertex="1">
          <mxGeometry x="240" y="360" width="120" height="80" as="geometry" />
        </mxCell>
        <mxCell id="s5n8KvZ3U9ey9CkBo1np-15" value="RenderWorld" style="rounded=0;whiteSpace=wrap;html=1;" parent="1" vertex="1">
          <mxGeometry x="240" y="540" width="120" height="40" as="geometry" />
        </mxCell>
        <mxCell id="bfRYl_HwLqJagW9Rja5c-2" style="rounded=0;orthogonalLoop=1;jettySize=auto;html=1;exitX=0;exitY=0.25;exitDx=0;exitDy=0;entryX=0.75;entryY=1;entryDx=0;entryDy=0;jumpStyle=none;" parent="1" source="s5n8KvZ3U9ey9CkBo1np-7" target="s5n8KvZ3U9ey9CkBo1np-27" edge="1">
          <mxGeometry relative="1" as="geometry">
            <Array as="points">
              <mxPoint x="220" y="400" />
              <mxPoint x="175" y="360" />
            </Array>
          </mxGeometry>
        </mxCell>
        <mxCell id="s5n8KvZ3U9ey9CkBo1np-7" value="WorldData&lt;div&gt;(Player copy)&lt;/div&gt;" style="rounded=0;whiteSpace=wrap;html=1;fillColor=#6a00ff;fontColor=#ffffff;strokeColor=#3700CC;" parent="1" vertex="1">
          <mxGeometry x="250" y="390" width="100" height="40" as="geometry" />
        </mxCell>
        <mxCell id="s5n8KvZ3U9ey9CkBo1np-20" style="edgeStyle=orthogonalEdgeStyle;rounded=0;orthogonalLoop=1;jettySize=auto;html=1;exitX=0.75;exitY=0;exitDx=0;exitDy=0;entryX=0;entryY=0.75;entryDx=0;entryDy=0;" parent="1" source="s5n8KvZ3U9ey9CkBo1np-16" target="s5n8KvZ3U9ey9CkBo1np-13" edge="1">
          <mxGeometry relative="1" as="geometry" />
        </mxCell>
        <mxCell id="s5n8KvZ3U9ey9CkBo1np-21" style="edgeStyle=orthogonalEdgeStyle;rounded=0;orthogonalLoop=1;jettySize=auto;html=1;exitX=0.75;exitY=1;exitDx=0;exitDy=0;entryX=0;entryY=0.5;entryDx=0;entryDy=0;" parent="1" source="s5n8KvZ3U9ey9CkBo1np-16" target="s5n8KvZ3U9ey9CkBo1np-15" edge="1">
          <mxGeometry relative="1" as="geometry" />
        </mxCell>
        <mxCell id="s5n8KvZ3U9ey9CkBo1np-16" value="CameraControls" style="rounded=0;whiteSpace=wrap;html=1;" parent="1" vertex="1">
          <mxGeometry x="100" y="470" width="100" height="40" as="geometry" />
        </mxCell>
        <mxCell id="s5n8KvZ3U9ey9CkBo1np-22" value="Camera Position" style="text;html=1;align=center;verticalAlign=middle;whiteSpace=wrap;rounded=0;" parent="1" vertex="1">
          <mxGeometry x="174" y="420" width="60" height="30" as="geometry" />
        </mxCell>
        <mxCell id="s5n8KvZ3U9ey9CkBo1np-23" value="Camera Position" style="text;html=1;align=center;verticalAlign=middle;whiteSpace=wrap;rounded=0;" parent="1" vertex="1">
          <mxGeometry x="174" y="530" width="60" height="30" as="geometry" />
        </mxCell>
        <mxCell id="s5n8KvZ3U9ey9CkBo1np-24" value="Mapmode" style="text;html=1;align=center;verticalAlign=middle;whiteSpace=wrap;rounded=0;" parent="1" vertex="1">
          <mxGeometry x="209.5" y="480" width="60" height="20" as="geometry" />
        </mxCell>
        <mxCell id="s5n8KvZ3U9ey9CkBo1np-26" value="GPU Buffer Updates" style="text;html=1;align=center;verticalAlign=middle;whiteSpace=wrap;rounded=0;" parent="1" vertex="1">
          <mxGeometry x="329" y="480" width="70" height="20" as="geometry" />
        </mxCell>
        <mxCell id="s5n8KvZ3U9ey9CkBo1np-30" style="edgeStyle=orthogonalEdgeStyle;rounded=0;orthogonalLoop=1;jettySize=auto;html=1;exitX=1;exitY=0.5;exitDx=0;exitDy=0;entryX=0.25;entryY=0;entryDx=0;entryDy=0;" parent="1" source="s5n8KvZ3U9ey9CkBo1np-27" target="s5n8KvZ3U9ey9CkBo1np-13" edge="1">
          <mxGeometry relative="1" as="geometry" />
        </mxCell>
        <mxCell id="s5n8KvZ3U9ey9CkBo1np-27" value="UIManager" style="rounded=0;whiteSpace=wrap;html=1;" parent="1" vertex="1">
          <mxGeometry x="100" y="270" width="100" height="40" as="geometry" />
        </mxCell>
        <mxCell id="s5n8KvZ3U9ey9CkBo1np-31" value="" style="endArrow=classic;html=1;rounded=0;entryX=1;entryY=0.5;entryDx=0;entryDy=0;dashed=1;exitX=0;exitY=0.897;exitDx=0;exitDy=0;exitPerimeter=0;" parent="1" source="s5n8KvZ3U9ey9CkBo1np-37" target="s5n8KvZ3U9ey9CkBo1np-15" edge="1">
          <mxGeometry width="50" height="50" relative="1" as="geometry">
            <mxPoint x="500" y="470" as="sourcePoint" />
            <mxPoint x="340" y="200" as="targetPoint" />
            <Array as="points">
              <mxPoint x="520" y="447" />
              <mxPoint x="520" y="560" />
            </Array>
          </mxGeometry>
        </mxCell>
        <mxCell id="s5n8KvZ3U9ey9CkBo1np-32" value="UI Collision" style="text;html=1;align=center;verticalAlign=middle;whiteSpace=wrap;rounded=0;rotation=0;" parent="1" vertex="1">
          <mxGeometry x="199" y="290" width="70" height="30" as="geometry" />
        </mxCell>
        <mxCell id="s5n8KvZ3U9ey9CkBo1np-36" value="Render parameters" style="text;html=1;align=center;verticalAlign=middle;whiteSpace=wrap;rounded=0;" parent="1" vertex="1">
          <mxGeometry x="390" y="535" width="60" height="20" as="geometry" />
        </mxCell>
        <mxCell id="s5n8KvZ3U9ey9CkBo1np-43" style="edgeStyle=orthogonalEdgeStyle;rounded=0;orthogonalLoop=1;jettySize=auto;html=1;exitX=0.5;exitY=0;exitDx=0;exitDy=0;entryX=0.5;entryY=1;entryDx=0;entryDy=0;startArrow=classic;startFill=1;" parent="1" source="s5n8KvZ3U9ey9CkBo1np-38" target="s5n8KvZ3U9ey9CkBo1np-37" edge="1">
          <mxGeometry relative="1" as="geometry" />
        </mxCell>
        <mxCell id="s5n8KvZ3U9ey9CkBo1np-38" value="CountryController" style="rounded=0;whiteSpace=wrap;html=1;verticalAlign=top;" parent="1" vertex="1">
          <mxGeometry x="610" y="540" width="140" height="100" as="geometry" />
        </mxCell>
        <mxCell id="s5n8KvZ3U9ey9CkBo1np-39" value="Country" style="rounded=0;whiteSpace=wrap;html=1;fillColor=#6a00ff;strokeColor=#3700CC;fontColor=#ffffff;" parent="1" vertex="1">
          <mxGeometry x="629.5" y="570" width="100" height="20" as="geometry" />
        </mxCell>
        <mxCell id="s5n8KvZ3U9ey9CkBo1np-40" value="AI (toggle)" style="rounded=0;whiteSpace=wrap;html=1;" parent="1" vertex="1">
          <mxGeometry x="630" y="600" width="100" height="20" as="geometry" />
        </mxCell>
        <mxCell id="s5n8KvZ3U9ey9CkBo1np-41" value="Countries&lt;div&gt;(For Diplomacy)&lt;/div&gt;" style="rounded=0;whiteSpace=wrap;html=1;fillColor=#6a00ff;strokeColor=#3700CC;fontColor=#ffffff;" parent="1" vertex="1">
          <mxGeometry x="630" y="200" width="100" height="40" as="geometry" />
        </mxCell>
        <mxCell id="s5n8KvZ3U9ey9CkBo1np-42" value="WorldData&lt;div&gt;(Master instance)&lt;/div&gt;" style="rounded=0;whiteSpace=wrap;html=1;fillColor=#6a00ff;strokeColor=#3700CC;fontColor=#ffffff;" parent="1" vertex="1">
          <mxGeometry x="630" y="420" width="100" height="40" as="geometry" />
        </mxCell>
        <mxCell id="s5n8KvZ3U9ey9CkBo1np-52" style="edgeStyle=orthogonalEdgeStyle;rounded=0;orthogonalLoop=1;jettySize=auto;html=1;exitX=0.5;exitY=1;exitDx=0;exitDy=0;entryX=0.5;entryY=0;entryDx=0;entryDy=0;dashed=1;" parent="1" source="s5n8KvZ3U9ey9CkBo1np-47" target="s5n8KvZ3U9ey9CkBo1np-42" edge="1">
          <mxGeometry relative="1" as="geometry" />
        </mxCell>
        <mxCell id="s5n8KvZ3U9ey9CkBo1np-47" value="LoadPlanet" style="rounded=0;whiteSpace=wrap;html=1;fillColor=#60a917;fontColor=#ffffff;strokeColor=#2D7600;" parent="1" vertex="1">
          <mxGeometry x="630" y="320" width="100" height="40" as="geometry" />
        </mxCell>
        <mxCell id="s5n8KvZ3U9ey9CkBo1np-50" value="Creates" style="text;html=1;align=center;verticalAlign=middle;whiteSpace=wrap;rounded=0;" parent="1" vertex="1">
          <mxGeometry x="680" y="380" width="60" height="20" as="geometry" />
        </mxCell>
        <mxCell id="bfRYl_HwLqJagW9Rja5c-7" style="edgeStyle=orthogonalEdgeStyle;rounded=0;orthogonalLoop=1;jettySize=auto;html=1;exitX=0.5;exitY=0.5;exitDx=0;exitDy=0;exitPerimeter=0;entryX=0.5;entryY=0;entryDx=0;entryDy=0;" parent="1" source="bfRYl_HwLqJagW9Rja5c-6" target="s5n8KvZ3U9ey9CkBo1np-16" edge="1">
          <mxGeometry relative="1" as="geometry">
            <Array as="points">
              <mxPoint x="150" y="390" />
            </Array>
          </mxGeometry>
        </mxCell>
        <mxCell id="bfRYl_HwLqJagW9Rja5c-8" style="rounded=0;orthogonalLoop=1;jettySize=auto;html=1;exitX=0.5;exitY=0.5;exitDx=0;exitDy=0;exitPerimeter=0;entryX=0;entryY=0.25;entryDx=0;entryDy=0;" parent="1" source="bfRYl_HwLqJagW9Rja5c-6" target="s5n8KvZ3U9ey9CkBo1np-13" edge="1">
          <mxGeometry relative="1" as="geometry">
            <Array as="points">
              <mxPoint x="150" y="390" />
              <mxPoint x="200" y="380" />
            </Array>
          </mxGeometry>
        </mxCell>
        <mxCell id="bfRYl_HwLqJagW9Rja5c-9" style="edgeStyle=orthogonalEdgeStyle;rounded=0;orthogonalLoop=1;jettySize=auto;html=1;exitX=0.5;exitY=0.5;exitDx=0;exitDy=0;exitPerimeter=0;" parent="1" source="bfRYl_HwLqJagW9Rja5c-6" edge="1">
          <mxGeometry relative="1" as="geometry">
            <mxPoint x="150" y="310" as="targetPoint" />
            <Array as="points">
              <mxPoint x="150" y="390" />
            </Array>
          </mxGeometry>
        </mxCell>
        <mxCell id="bfRYl_HwLqJagW9Rja5c-6" value="Player&lt;div&gt;Input&lt;/div&gt;" style="shape=umlActor;verticalLabelPosition=bottom;verticalAlign=top;html=1;outlineConnect=0;" parent="1" vertex="1">
          <mxGeometry x="100" y="360" width="30" height="60" as="geometry" />
        </mxCell>
      </root>
    </mxGraphModel>
  </diagram>
</mxfile>
